<svg width="171" height="49" viewBox="0 0 171 49" fill="none" xmlns="http://www.w3.org/2000/svg">
<path d="M47.3029 13.8512C47.3029 10.1961 45.3364 6.79748 42.1301 5.02335L35.4611 1.3041C32.2763 -0.470022 28.4715 -0.427272 25.3294 1.41098C22.1659 3.2706 20.2849 6.56235 20.2849 10.2175V30.5879L6.7545 23.128L6.73313 8.84948L6.7545 6.07073C6.7545 5.19435 5.79263 4.61723 5.02313 5.0661L0.5985 7.5456C0.235125 7.75935 0 8.1441 0 8.55023V8.84948L0.021375 27.1037V36.0171C0.021375 36.4446 0.2565 36.8294 0.619875 37.0217L5.0445 39.544C5.814 39.9715 6.77588 39.4157 6.77588 38.5394V30.8657L20.3063 38.3042V46.8542C20.3063 47.4955 20.7979 48.0085 21.4391 48.0085H25.8851C26.5264 48.0085 27.0608 47.4955 27.0608 46.8542V38.3042L41.5958 30.2672C45.1226 28.3221 47.3243 24.6029 47.3029 20.563V13.8512ZM38.3254 24.3464L27.0608 30.5879V10.2175C27.0608 8.44335 28.2578 7.5456 28.7708 7.24635C29.2838 6.9471 30.6304 6.3486 32.1908 7.2036L38.8384 10.9229C39.8858 11.5214 40.5484 12.6329 40.5484 13.8512V17.0575V17.1002V17.1644V20.5844C40.5484 22.1447 39.6934 23.5982 38.3254 24.3464Z" fill="url(#paint0_linear_290_3)"/>
<path d="M76.5439 34.1573H70.3879V13.7228H76.5439V21.0972H82.4648V13.7228H88.6208V34.1359H82.4648V26.505H76.5439V34.1573Z" fill="black"/>
<path d="M104.267 34.1573H97.7905L105.528 13.7441H112.219L119.956 34.1573H113.416L112.347 31.2289H105.272L104.267 34.1573ZM108.863 20.5628L106.832 26.4623H110.893L108.863 20.5628Z" fill="black"/>
<path d="M132.033 26.5905L124.958 13.7441H131.734L135.176 20.6483L138.574 13.7441H145.329L138.211 26.505V34.1359H132.033V26.5905Z" fill="black"/>
<path d="M168.649 25.6928C167.088 26.8684 165.015 27.4669 162.471 27.4669H161.039V34.1359H154.862V13.7228H162.621C165.122 13.7228 167.131 14.2999 168.67 15.4328C170.209 16.6084 171 18.297 171 20.52C171 22.7858 170.209 24.4958 168.649 25.6928ZM162.471 18.7673H161.039V22.7217H162.45C164.032 22.7217 164.908 21.8667 164.908 20.7338C164.908 19.494 164.074 18.7673 162.471 18.7673Z" fill="black"/>
<defs>
<linearGradient id="paint0_linear_290_3" x1="0" y1="24.0108" x2="47.3018" y2="24.0108" gradientUnits="userSpaceOnUse">
<stop stop-color="#008C1E"/>
<stop offset="1" stop-color="#04CB3A"/>
</linearGradient>
</defs>
</svg>
