<svg width="4836" height="4445" viewBox="0 0 4836 4445" fill="none" xmlns="http://www.w3.org/2000/svg">
<circle cx="2472.42" cy="2726.85" r="682.279" fill="#04CC3A"/>
<circle cx="3626.09" cy="2726.85" r="682.279" fill="white" fill-opacity="0.25"/>
<circle cx="1331.15" cy="2726.85" r="682.279" fill="white" fill-opacity="0.25"/>
<path d="M1895.94 2651.45V2648.29H1899.02V2645.92H1895.94V2642.78H1893.52V2645.92H1890.36V2648.29H1893.52V2651.45H1895.94Z" fill="white"/>
<path d="M3062.01 2701.04V2697.88H3065.09V2695.51H3062.01V2692.37H3059.6V2695.51H3056.44V2697.88H3059.6V2701.04H3062.01Z" fill="white"/>
<path d="M1318.57 2459.15C1445.38 2461.43 1565.55 2510 1664.98 2608.31C1680.79 2623.93 1683.39 2640.77 1673.2 2656.72C1660.06 2677.25 1634.4 2680.35 1615.64 2663.84C1599.55 2649.67 1584.02 2634.7 1566.9 2621.89C1395.15 2493.16 1156.25 2507.77 1001.08 2656.11C998.268 2658.8 995.528 2661.61 992.601 2664.19C976.255 2678.59 954.662 2677.98 940.189 2662.74C925.787 2647.56 925.717 2626.9 940.869 2611.33C970.142 2581.28 1003.02 2555.59 1038.95 2533.95C1121.05 2484.47 1210.16 2459.72 1318.57 2459.15Z" fill="#04CB3A"/>
<path d="M1300.66 2608.86C1404.17 2610.48 1487.78 2644.84 1556.89 2713.62C1576.09 2732.73 1574.78 2757.46 1554.43 2772.19C1539.56 2782.96 1522.81 2781.23 1507.24 2768.98C1487.38 2753.36 1468.08 2736.38 1446.28 2723.99C1336.16 2661.46 1201.11 2678.21 1108.81 2765.91C1082.44 2790.97 1049.45 2776.19 1043.24 2750.43C1040.01 2737.01 1043.87 2725.58 1053.12 2716.12C1108.98 2659 1176.54 2624.48 1255.56 2612.87C1272.49 2610.36 1289.7 2609.8 1300.66 2608.86Z" fill="#04CB3A"/>
<path d="M1428.05 2891.85C1415.59 2892.25 1406.9 2885.31 1398.26 2877.61C1359.59 2843.18 1315.24 2831.59 1266.1 2849.65C1249.8 2855.64 1234.79 2866.91 1221.33 2878.27C1202.31 2894.28 1181.89 2896.51 1166.13 2881.08C1150.58 2865.83 1150.58 2841.38 1166.1 2824.14C1243.08 2738.59 1378.4 2738.83 1454.3 2824.66C1465.98 2837.87 1469.12 2852.86 1461.89 2869.13C1455.47 2883.56 1443.92 2891.15 1428.05 2891.85Z" fill="#04CB3A"/>
<path d="M1307.88 3049.35C1268.75 3049.31 1236.94 3017.81 1236.73 2978.86C1236.54 2939.38 1268.54 2907.46 1308.25 2907.55C1347.43 2907.62 1379.07 2939.03 1379.31 2978.09C1379.54 3017.64 1347.74 3049.4 1307.88 3049.35Z" fill="#04CB3A"/>
<g clip-path="url(#clip0_2601_175)">
<path d="M3554.87 2893.79C3548.07 2893.79 3543.09 2893.79 3537.86 2893.79C3482.12 2893.79 3426.13 2893.79 3370.39 2893.79C3333.23 2893.79 3315.96 2876.74 3315.96 2840.3C3315.96 2724.77 3315.96 2609.51 3315.96 2493.99C3315.96 2458.84 3333.23 2441.53 3368.82 2441.53C3557.22 2441.53 3745.63 2441.53 3933.77 2441.53C3968.31 2441.53 3985.84 2459.1 3985.84 2493.47C3985.84 2609.77 3985.84 2726.07 3985.84 2842.36C3985.84 2876.22 3967.78 2893.79 3933.24 2894.05C3876.98 2894.31 3820.73 2894.05 3764.47 2894.05C3759.23 2894.05 3754 2894.05 3746.93 2894.05C3746.93 2910.33 3746.41 2925.58 3747.46 2940.83C3747.72 2943.67 3753.21 2947.55 3757.14 2948.84C3804.76 2965.64 3852.65 2981.66 3900.01 2998.46C3906.55 3000.79 3914.14 3005.44 3916.5 3011.13C3918.85 3016.55 3917.28 3027.15 3913.36 3030.77C3908.12 3035.16 3897.92 3037.49 3891.11 3035.68C3873.06 3031.28 3855.53 3024.05 3838 3017.84C3787.49 3000.53 3736.73 2983.21 3686.23 2965.38C3662.68 2957.11 3639.65 2956.85 3616.1 2965.12C3550.42 2988.12 3484.48 3010.61 3418.8 3033.35C3399.7 3040.07 3388.71 3037.49 3384.26 3025.08C3379.55 3012.16 3386.09 3003.37 3406.24 2996.39C3452.29 2980.63 3498.35 2964.35 3544.4 2949.1C3552.25 2946.52 3555.65 2943.16 3555.13 2934.63C3554.35 2921.96 3554.87 2909.04 3554.87 2893.79ZM3650.9 2480.29C3558.27 2480.29 3465.9 2480.29 3373.53 2480.29C3355.21 2480.29 3355.21 2480.29 3355.21 2497.87C3355.21 2611.06 3355.21 2724.26 3355.21 2837.45C3355.21 2854.77 3355.21 2855.03 3372.49 2855.03C3558.27 2855.03 3743.79 2855.03 3929.58 2855.03C3946.33 2855.03 3946.59 2854.77 3946.59 2838.49C3946.59 2724.77 3946.59 2611.06 3946.59 2497.61C3946.59 2480.55 3946.59 2480.29 3929.32 2480.29C3836.43 2480.29 3743.53 2480.29 3650.9 2480.29ZM3595.43 2894.57C3595.43 2907.49 3595.43 2919.12 3595.43 2932.3C3633.11 2915.76 3669.48 2916.79 3706.64 2931.78C3706.64 2918.35 3706.64 2906.72 3706.64 2894.57C3669.22 2894.57 3632.85 2894.57 3595.43 2894.57Z" fill="white"/>
<path d="M3566.39 2545.41C3562.2 2552.39 3560.11 2558.08 3555.92 2562.21C3517.45 2600.72 3478.73 2638.97 3439.74 2677.22C3430.06 2686.78 3419.07 2687.04 3410.69 2679.29C3402.06 2671.27 3402.58 2659.39 3412.26 2649.82C3450.99 2611.32 3489.72 2573.07 3528.7 2534.82C3535.51 2528.1 3543.62 2524.48 3552.26 2529.65C3557.75 2533.01 3561.41 2539.73 3566.39 2545.41Z" fill="#04CC3A"/>
<path d="M3406.77 2597.63C3402.32 2594.27 3394.73 2591.43 3392.64 2586.26C3390.28 2580.57 3390.02 2570.49 3393.68 2566.36C3409.38 2548.78 3426.39 2532.24 3444.18 2516.22C3451.77 2509.24 3461.45 2511.05 3468.78 2518.29C3475.58 2525.27 3477.68 2534.57 3471.4 2541.55C3454.65 2559.64 3436.86 2576.44 3419.06 2593.49C3416.71 2595.56 3412.52 2595.82 3406.77 2597.63Z" fill="#04CC3A"/>
</g>
<g clip-path="url(#clip1_2601_175)">
<path d="M2137.48 2567.65C2136.63 2548.21 2146.92 2521.73 2170.95 2500.32C2187.54 2485.39 2202.69 2469.05 2218.71 2453.83C2245.6 2428.48 2272.77 2428.2 2299.37 2453.27C2327.68 2480.32 2355.71 2507.92 2383.17 2536.09C2410.34 2563.7 2409.77 2589.62 2382.31 2617.23C2366.58 2633 2350.85 2648.78 2334.55 2663.99C2326.82 2671.32 2325.68 2678.08 2330.26 2687.66C2357.14 2742.87 2398.04 2787.1 2442.94 2828.23C2472.69 2855.56 2505.58 2878.66 2542.19 2896.41C2551.91 2901.19 2558.49 2900.35 2565.93 2892.74C2581.66 2876.4 2597.96 2860.63 2614.26 2844.85C2641.43 2818.65 2668.61 2818.65 2695.78 2844.85C2723.8 2871.61 2751.55 2898.94 2778.72 2926.55C2806.18 2954.16 2805.89 2981.2 2778.15 3009.09C2764.13 3023.18 2749.26 3036.42 2736.1 3051.07C2708.07 3082.34 2673.18 3090.79 2632.85 3085.72C2580.8 3079.24 2533.61 3059.8 2488.42 3035.01C2337.12 2952.18 2225.29 2834.15 2159.22 2675.26C2146.92 2644.55 2138.34 2612.72 2137.48 2567.65Z" fill="white"/>
<path d="M2869.38 2704C2850.79 2707.1 2833.06 2709.91 2813.9 2713.29C2799.31 2636.95 2764.99 2571.87 2708.93 2518.35C2653.16 2465.1 2586.52 2433.27 2507.87 2421.44C2510.44 2402.85 2513.01 2385.1 2515.3 2367.35C2671.46 2381.72 2837.06 2512.43 2869.38 2704Z" fill="#008D1E"/>
<path d="M2500.43 2564.27C2503 2546.52 2505.29 2529.05 2507.87 2511.59C2591.67 2515.25 2702.07 2593.28 2720.66 2713.29C2711.51 2714.98 2702.35 2716.39 2693.2 2718.08C2684.33 2719.49 2675.47 2721.18 2666.03 2722.59C2645.15 2635.26 2590.24 2582.58 2500.43 2564.27Z" fill="#008D1E"/>
</g>
<path d="M1307.59 3680.33L1309.65 3673.52H1309.67L1311.71 3680.33H1313.81L1316.59 3670.94H1314.59L1312.74 3677.66L1310.71 3670.94H1308.64L1306.61 3677.61L1304.82 3670.94H1302.75L1305.51 3680.33H1307.59ZM1319.85 3670.94H1317.91V3680.33H1319.85V3670.94ZM1325.68 3675.51H1321.72V3677.36H1325.68V3675.51ZM1329.48 3674.78V3672.78H1333.73V3670.94H1327.54V3680.33H1329.48V3676.62H1333.29V3674.78H1329.48ZM1337.28 3670.94H1335.33V3680.33H1337.28V3670.94ZM1344.04 3675.17C1344.08 3674.43 1344.27 3673.82 1344.62 3673.32C1344.98 3672.83 1345.51 3672.58 1346.2 3672.58C1346.78 3672.58 1347.34 3672.8 1347.89 3673.23L1348.9 3671.74C1348.1 3671.12 1347.21 3670.8 1346.24 3670.8C1344.87 3670.8 1343.81 3671.27 1343.08 3672.22C1342.35 3673.17 1341.99 3674.4 1341.99 3675.94C1341.99 3677.39 1342.25 3678.45 1342.78 3679.13C1343.47 3680.01 1344.44 3680.45 1345.67 3680.45C1346.6 3680.45 1347.41 3680.15 1348.12 3679.56C1348.83 3678.98 1349.18 3678.18 1349.18 3677.2C1349.18 3676.37 1348.89 3675.66 1348.31 3675.09C1347.75 3674.5 1347.02 3674.21 1346.12 3674.21C1345.27 3674.21 1344.58 3674.54 1344.04 3675.17ZM1344.04 3677.26C1344.04 3676.4 1344.77 3675.86 1345.64 3675.86C1346.56 3675.86 1347.22 3676.42 1347.22 3677.27C1347.22 3677.67 1347.07 3678.02 1346.77 3678.29C1346.47 3678.57 1346.09 3678.7 1345.65 3678.7C1345.22 3678.7 1344.85 3678.56 1344.52 3678.28C1344.2 3678 1344.04 3677.66 1344.04 3677.26Z" fill="white"/>
<path d="M2509.14 3603.89H2511.07V3596.38H2513.89V3594.5H2506.32V3596.38H2509.14V3603.89ZM2519.98 3601.2C2519.99 3601.06 2520.01 3600.83 2520.01 3600.53C2520.01 3599.58 2519.71 3598.8 2519.12 3598.22C2518.53 3597.63 2517.76 3597.33 2516.81 3597.33C2515.89 3597.33 2515.09 3597.65 2514.41 3598.31C2513.75 3598.97 2513.42 3599.75 2513.42 3600.68C2513.42 3601.66 2513.75 3602.46 2514.43 3603.1C2515.11 3603.72 2515.94 3604.04 2516.93 3604.04C2518.24 3604.04 2519.15 3603.56 2519.69 3602.58L2518.34 3601.7C2518.05 3602.16 2517.47 3602.46 2516.91 3602.46C2516.11 3602.46 2515.43 3601.98 2515.33 3601.2H2519.98ZM2515.37 3599.97C2515.41 3599.72 2515.55 3599.46 2515.81 3599.22C2516.06 3598.97 2516.38 3598.85 2516.77 3598.85C2517.62 3598.85 2518.09 3599.4 2518.13 3599.97H2515.37ZM2523.22 3594.11H2521.34V3603.89H2523.22V3594.11ZM2531.11 3601.2C2531.13 3601.06 2531.14 3600.83 2531.14 3600.53C2531.14 3599.58 2530.84 3598.8 2530.25 3598.22C2529.66 3597.63 2528.89 3597.33 2527.95 3597.33C2527.02 3597.33 2526.22 3597.65 2525.55 3598.31C2524.89 3598.97 2524.55 3599.75 2524.55 3600.68C2524.55 3601.66 2524.89 3602.46 2525.56 3603.1C2526.24 3603.72 2527.07 3604.04 2528.07 3604.04C2529.37 3604.04 2530.29 3603.56 2530.83 3602.58L2529.47 3601.7C2529.18 3602.16 2528.61 3602.46 2528.04 3602.46C2527.24 3602.46 2526.57 3601.98 2526.46 3601.2H2531.11ZM2526.51 3599.97C2526.54 3599.72 2526.69 3599.46 2526.94 3599.22C2527.19 3598.97 2527.51 3598.85 2527.9 3598.85C2528.75 3598.85 2529.22 3599.4 2529.27 3599.97H2526.51ZM2536.58 3594.22C2536.3 3594.14 2536.01 3594.09 2535.7 3594.09C2533.89 3594.09 2533 3595.18 2533 3596.85V3597.48H2531.85V3599.08H2533V3603.89H2534.87V3599.08H2536.54V3597.48H2534.86V3596.81C2534.86 3596.08 2535.28 3595.68 2536 3595.68C2536.23 3595.68 2536.42 3595.71 2536.58 3595.76V3594.22ZM2537.08 3600.7C2537.08 3601.66 2537.41 3602.45 2538.09 3603.09C2538.76 3603.72 2539.59 3604.04 2540.57 3604.04C2541.54 3604.04 2542.37 3603.71 2543.05 3603.08C2543.74 3602.43 2544.07 3601.62 2544.07 3600.66C2544.07 3599.72 2543.74 3598.94 2543.07 3598.3C2542.39 3597.66 2541.57 3597.34 2540.59 3597.34C2539.62 3597.34 2538.78 3597.66 2538.1 3598.31C2537.41 3598.95 2537.08 3599.75 2537.08 3600.7ZM2539 3600.68C2539 3600.21 2539.15 3599.81 2539.45 3599.51C2539.75 3599.2 2540.13 3599.04 2540.57 3599.04C2541.01 3599.04 2541.4 3599.2 2541.7 3599.51C2542 3599.81 2542.15 3600.21 2542.15 3600.68C2542.15 3601.64 2541.48 3602.32 2540.58 3602.32C2540.14 3602.32 2539.75 3602.16 2539.45 3601.86C2539.15 3601.55 2539 3601.16 2539 3600.68ZM2551.41 3603.89V3599.91C2551.41 3599.19 2551.21 3598.59 2550.82 3598.1C2550.43 3597.6 2549.86 3597.36 2549.09 3597.36C2548.81 3597.36 2548.48 3597.38 2547.91 3597.7C2547.64 3597.86 2547.43 3598.06 2547.28 3598.32H2547.27V3597.48H2545.41V3603.89H2547.28V3600.34C2547.28 3599.63 2547.67 3599.09 2548.43 3599.09C2549.16 3599.09 2549.55 3599.58 2549.55 3600.34V3603.89H2551.41ZM2559.24 3601.2C2559.25 3601.06 2559.26 3600.83 2559.26 3600.53C2559.26 3599.58 2558.96 3598.8 2558.37 3598.22C2557.79 3597.63 2557.02 3597.33 2556.07 3597.33C2555.15 3597.33 2554.34 3597.65 2553.67 3598.31C2553.01 3598.97 2552.67 3599.75 2552.67 3600.68C2552.67 3601.66 2553.01 3602.46 2553.68 3603.1C2554.37 3603.72 2555.19 3604.04 2556.19 3604.04C2557.5 3604.04 2558.41 3603.56 2558.95 3602.58L2557.59 3601.7C2557.31 3602.16 2556.73 3602.46 2556.17 3602.46C2555.36 3602.46 2554.69 3601.98 2554.58 3601.2H2559.24ZM2554.63 3599.97C2554.67 3599.72 2554.81 3599.46 2555.06 3599.22C2555.31 3598.97 2555.64 3598.85 2556.02 3598.85C2556.87 3598.85 2557.34 3599.4 2557.39 3599.97H2554.63ZM2509.79 3607.5H2507.84V3616.89H2509.79V3607.5ZM2513.63 3607.11H2511.75V3616.89H2513.63V3607.11ZM2516.28 3607.09C2515.66 3607.09 2515.13 3607.62 2515.13 3608.25C2515.13 3608.89 2515.66 3609.4 2516.28 3609.4C2516.94 3609.4 2517.46 3608.89 2517.46 3608.25C2517.46 3607.59 2516.94 3607.09 2516.28 3607.09ZM2517.24 3616.89V3610.48H2515.36V3616.89H2517.24ZM2526.04 3612.09C2526.73 3612.09 2527.08 3612.5 2527.08 3613.32V3616.89H2528.95V3612.9C2528.95 3611.35 2528.2 3610.34 2526.7 3610.34C2525.8 3610.34 2525.2 3610.65 2524.57 3611.36C2524.21 3610.68 2523.59 3610.34 2522.7 3610.34C2521.93 3610.34 2521.18 3610.7 2520.83 3611.32H2520.81V3610.48H2518.97V3616.89H2520.84V3613.34C2520.84 3612.58 2521.23 3612.09 2521.98 3612.09C2522.68 3612.09 2523.03 3612.51 2523.03 3613.34V3616.89H2524.89V3613.32C2524.89 3612.56 2525.31 3612.09 2526.04 3612.09ZM2531.54 3607.09C2530.92 3607.09 2530.39 3607.62 2530.39 3608.25C2530.39 3608.89 2530.92 3609.4 2531.54 3609.4C2532.2 3609.4 2532.72 3608.89 2532.72 3608.25C2532.72 3607.59 2532.2 3607.09 2531.54 3607.09ZM2532.5 3616.89V3610.48H2530.62V3616.89H2532.5ZM2538.19 3615.31C2538.06 3615.34 2537.91 3615.36 2537.76 3615.36C2537.02 3615.36 2536.64 3615.07 2536.64 3614.34V3612.1H2538.22V3610.48H2536.64V3608.48H2534.79V3610.48H2533.62V3612.1H2534.77V3614.56C2534.77 3616.06 2535.64 3616.98 2537.31 3616.98C2537.62 3616.98 2537.91 3616.94 2538.19 3616.86V3615.31ZM2541.43 3617.01C2542.28 3617.01 2542.92 3616.7 2543.35 3616.09L2543.37 3616.1V3616.89H2545.1V3612.92C2545.1 3611.24 2544.01 3610.34 2542.32 3610.34C2540.91 3610.34 2539.93 3610.84 2539.38 3611.86L2540.81 3612.72C2541.13 3612.14 2541.6 3611.85 2542.23 3611.85C2542.91 3611.85 2543.27 3612.2 2543.27 3612.64C2543.27 3612.96 2543.1 3613.11 2542.76 3613.11H2542.13C2541.41 3613.11 2540.81 3613.22 2540.22 3613.5C2539.64 3613.77 2539.27 3614.32 2539.27 3615.08V3615.1C2539.27 3615.68 2539.47 3616.15 2539.89 3616.5C2540.31 3616.84 2540.83 3617.01 2541.43 3617.01ZM2541.97 3615.64C2541.49 3615.64 2541.15 3615.43 2541.15 3615C2541.15 3614.52 2541.59 3614.26 2542.13 3614.26H2543.25V3614.41C2543.25 3615.12 2542.77 3615.64 2541.97 3615.64ZM2551.45 3616.89H2553.26V3607.12H2551.4V3611.22H2551.37C2550.89 3610.65 2550.26 3610.36 2549.45 3610.36C2548.58 3610.36 2547.85 3610.7 2547.26 3611.38C2546.67 3612.06 2546.38 3612.82 2546.38 3613.68C2546.38 3614.58 2546.67 3615.37 2547.23 3616.03C2547.8 3616.69 2548.53 3617.01 2549.43 3617.01C2550.33 3617.01 2551 3616.7 2551.42 3616.08H2551.45V3616.89ZM2551.45 3613.68C2551.45 3614.16 2551.29 3614.55 2550.99 3614.86C2550.69 3615.16 2550.31 3615.32 2549.86 3615.32C2549.42 3615.32 2549.03 3615.16 2548.73 3614.86C2548.43 3614.55 2548.28 3614.16 2548.28 3613.68C2548.28 3612.73 2548.96 3612.06 2549.86 3612.06C2550.76 3612.06 2551.45 3612.73 2551.45 3613.68ZM2554.6 3613.7C2554.6 3614.66 2554.93 3615.45 2555.6 3616.09C2556.28 3616.72 2557.1 3617.04 2558.09 3617.04C2559.06 3617.04 2559.89 3616.71 2560.57 3616.08C2561.26 3615.43 2561.59 3614.62 2561.59 3613.66C2561.59 3612.72 2561.26 3611.94 2560.58 3611.3C2559.91 3610.66 2559.08 3610.34 2558.11 3610.34C2557.14 3610.34 2556.3 3610.66 2555.62 3611.31C2554.93 3611.95 2554.6 3612.75 2554.6 3613.7ZM2556.52 3613.68C2556.52 3613.21 2556.67 3612.81 2556.97 3612.51C2557.27 3612.2 2557.64 3612.04 2558.09 3612.04C2558.53 3612.04 2558.92 3612.2 2559.22 3612.51C2559.52 3612.81 2559.67 3613.21 2559.67 3613.68C2559.67 3614.64 2559 3615.32 2558.1 3615.32C2557.66 3615.32 2557.27 3615.16 2556.97 3614.86C2556.67 3614.55 2556.52 3614.16 2556.52 3613.68Z" fill="white"/>
<path d="M3643.29 3680.33H3645.22V3672.82H3648.04V3670.94H3640.47V3672.82H3643.29V3680.33ZM3648.47 3670.94L3651.87 3680.33H3654.11L3657.52 3670.94H3655.45L3653.01 3678.08L3650.57 3670.94H3648.47Z" fill="white"/>
<path d="M1871.13 3645.55V3642.39H1874.21V3640.02H1871.13V3636.88H1868.71V3640.02H1865.55V3642.39H1868.71V3645.55H1871.13Z" fill="#04CB3A"/>
<path d="M3186.07 3621.71V3618.55H3189.15V3616.19H3186.07V3613.04H3183.65V3616.19H3180.49V3618.55H3183.65V3621.71H3186.07Z" fill="#04CB3A"/>
<defs>
<clipPath id="clip0_2601_175">
<rect width="669.874" height="595.444" fill="white" transform="translate(3315.96 2441.53)"/>
</clipPath>
<clipPath id="clip1_2601_175">
<rect width="731.9" height="719.494" fill="white" transform="translate(2137.48 2367.09)"/>
</clipPath>
</defs>
</svg>
