<svg width="37" height="41" viewBox="0 0 37 41" fill="none" xmlns="http://www.w3.org/2000/svg">
<path d="M14.8095 8.30274C12.819 8.30274 10.9101 9.09345 9.50259 10.5009C8.09512 11.9084 7.30441 13.8173 7.30441 15.8078C7.30441 17.7982 8.09512 19.7072 9.50259 21.1146C10.9101 22.5221 12.819 23.3128 14.8095 23.3128C16.7999 23.3128 18.7088 22.5221 20.1163 21.1146C21.5238 19.7072 22.3145 17.7982 22.3145 15.8078C22.3145 13.8173 21.5238 11.9084 20.1163 10.5009C18.7088 9.09345 16.7999 8.30274 14.8095 8.30274ZM4.80273 15.8078C4.80296 14.2153 5.18326 12.6458 5.91203 11.2299C6.64079 9.81392 7.69698 8.59234 8.9928 7.66667C10.2886 6.74099 11.7867 6.13795 13.3624 5.90767C14.9382 5.67739 16.5461 5.82651 18.0527 6.34264C19.5592 6.85878 20.9208 7.72702 22.0243 8.87521C23.1278 10.0234 23.9413 11.4184 24.3973 12.9442C24.8532 14.47 24.9384 16.0826 24.6458 17.648C24.3531 19.2134 23.6911 20.6863 22.7148 21.9444L29.453 28.6827C29.6809 28.9186 29.807 29.2346 29.8041 29.5625C29.8013 29.8905 29.6697 30.2042 29.4378 30.4361C29.2059 30.668 28.8922 30.7996 28.5642 30.8024C28.2362 30.8053 27.9203 30.6792 27.6843 30.4514L20.9461 23.7131C19.4669 24.8615 17.6952 25.5718 15.8323 25.7632C13.9695 25.9546 12.0904 25.6195 10.4086 24.7959C8.72675 23.9723 7.30978 22.6934 6.31878 21.1045C5.32779 19.5155 4.80253 17.6804 4.80273 15.8078Z" fill="#0D0D0D"/>
</svg>
