<svg width="9" height="16" viewBox="0 0 9 16" fill="none" xmlns="http://www.w3.org/2000/svg">
<path d="M0.32829 15.3659C0.117941 15.1555 -0.000227215 14.8702 -0.000227189 14.5727C-0.000227163 14.2751 0.117941 13.9898 0.32829 13.7794L6.26723 7.84044L0.328291 1.9015C0.123903 1.68988 0.0108083 1.40645 0.0133648 1.11226C0.0159213 0.818064 0.133924 0.536643 0.341959 0.328608C0.549994 0.120573 0.831415 0.00256915 1.12561 1.27019e-05C1.4198 -0.00254374 1.70323 0.110551 1.91485 0.314939L8.64707 7.04716C8.85742 7.25757 8.97559 7.54292 8.97559 7.84044C8.97559 8.13796 8.85742 8.42331 8.64707 8.63372L1.91485 15.3659C1.70444 15.5763 1.41909 15.6945 1.12157 15.6945C0.824046 15.6945 0.538703 15.5763 0.32829 15.3659V15.3659Z" fill="#2DC850"/>
</svg>
