<svg width="43" height="43" viewBox="0 0 43 43" fill="none" xmlns="http://www.w3.org/2000/svg">
<circle cx="21.5" cy="21.5" r="21.5" fill="#D9D9D9"/>
<path d="M32.9818 25.9332C32.6671 26.2478 32.2403 26.4245 31.7953 26.4245C31.3504 26.4245 30.9236 26.2478 30.6089 25.9332L21.7264 17.0507L12.8439 25.9332C12.5274 26.2389 12.1035 26.408 11.6635 26.4042C11.2235 26.4004 10.8026 26.2239 10.4914 25.9128C10.1803 25.6016 10.0038 25.1807 9.99998 24.7407C9.99615 24.3007 10.1653 23.8768 10.471 23.5603L20.5399 13.4913C20.8546 13.1767 21.2814 13 21.7264 13C22.1714 13 22.5982 13.1767 22.9129 13.4913L32.9818 23.5603C33.2964 23.875 33.4731 24.3018 33.4731 24.7467C33.4731 25.1917 33.2964 25.6185 32.9818 25.9332V25.9332Z" fill="#0D0D0D"/>
</svg>
