<svg width="43" height="43" viewBox="0 0 43 43" fill="none" xmlns="http://www.w3.org/2000/svg">
<circle cx="21.5" cy="21.5" r="21.5" transform="rotate(-90 21.5 21.5)" fill="#D9D9D9"/>
<path d="M25.9332 10.0182C26.2478 10.3329 26.4245 10.7597 26.4245 11.2047C26.4245 11.6496 26.2478 12.0764 25.9332 12.3911L17.0507 21.2736L25.9332 30.1561C26.2389 30.4726 26.408 30.8965 26.4042 31.3365C26.4004 31.7765 26.2239 32.1974 25.9128 32.5086C25.6016 32.8197 25.1807 32.9962 24.7407 33C24.3007 33.0038 23.8768 32.8347 23.5603 32.529L13.4913 22.4601C13.1767 22.1454 13 21.7186 13 21.2736C13 20.8286 13.1767 20.4018 13.4913 20.0871L23.5603 10.0182C23.875 9.70359 24.3018 9.52686 24.7467 9.52686C25.1917 9.52686 25.6185 9.70359 25.9332 10.0182V10.0182Z" fill="#0D0D0D"/>
</svg>
